<?xml version="1.0" encoding="UTF-8"?>
<svg width="500" height="500" viewBox="0 0 500 500" xmlns="http://www.w3.org/2000/svg">
  <defs>
    <style>
      .logo-background { fill: #FF4D00; }
      .logo-circle { fill: #2C1810; }
      .logo-moose { fill: #5C3C24; }
      .logo-mountains { fill: #FFFFFF; }
      .logo-text { font-family: Arial Black, sans-serif; fill: #2C1810; }
      .logo-rifle { fill: #2C1810; }
    </style>
  </defs>
  
  <!-- Background Circle -->
  <circle class="logo-circle" cx="250" cy="250" r="240"/>
  
  <!-- Mountains and Trees -->
  <path class="logo-mountains" d="M100,350 L200,200 L300,350 L100,350 Z M350,350 L400,250 L450,350 L350,350 Z"/>
  <path class="logo-mountains" d="M50,350 C50,350 100,330 150,350 C200,370 250,350 300,350 C350,350 400,370 450,350 L450,400 L50,400 Z"/>
  
  <!-- Moose -->
  <path class="logo-moose" d="M150,250 C150,250 200,200 250,250 C300,300 350,250 350,250 L300,300 L200,300 Z"/>
  <path class="logo-moose" d="M200,280 L220,260 L240,280 L260,260 L280,280 L300,260"/>
  
  <!-- Rifle -->
  <path class="logo-rifle" d="M100,400 L400,400 L380,420 L120,420 Z"/>
  <rect class="logo-rifle" x="200" y="390" width="200" height="20"/>
  
  <!-- DB Text -->
  <text class="logo-text" x="180" y="450" font-size="100">DB</text>
  
  <!-- DANK BULLS Text -->
  <text class="logo-text" x="250" y="480" text-anchor="middle" font-size="36">DANK BULLS</text>
</svg>
